<?xml version="1.0" encoding="utf-8"?>
<!-- Generator: Adobe Illustrator 25.0.0, SVG Export Plug-In . SVG Version: 6.00 Build 0)  -->
<svg version="1.1" id="Layer_1" xmlns="http://www.w3.org/2000/svg" xmlns:xlink="http://www.w3.org/1999/xlink" x="0px" y="0px"
	 viewBox="0 0 2133.28 841.89" style="enable-background:new 0 0 2133.28 841.89;" xml:space="preserve">
<style type="text/css">
	.st0{fill:#19213C;}
	.st1{fill:#E76496;}
</style>
<path class="st0" d="M511.49,158.64c-21.62,0-36.03,10.21-45.04,31.23l-111.1,258.84L244.24,189.87
	c-9.01-21.02-23.42-31.23-45.04-31.23c-24.02,0-44.44,14.42-44.44,48.65v329.7c0,29.43,12.61,43.84,39.64,43.84
	c27.03,0,39.64-14.42,39.64-43.84V366.43l79.87,188.58c7.21,16.22,25.82,25.82,41.44,25.82c16.21,0,33.03-9.61,40.24-25.82
	l81.07-188.58v170.56c0,29.43,12.61,43.84,39.64,43.84c27.02,0,39.64-14.42,39.64-43.84v-329.7
	C555.93,173.06,534.91,158.64,511.49,158.64"/>
<path class="st0" d="M846.48,295.57c-19.22,0-30.03,9.61-34.23,28.22c-13.81-23.42-45.64-33.63-81.68-33.63
	c-80.48,0-130.32,63.06-130.32,146.54c0,81.68,50.45,146.54,130.32,146.54c35.43,0,68.47-15.61,79.87-33.03
	c5.41,20.42,16.82,30.63,34.83,30.63c25.83,0,38.44-13.81,38.44-41.44V334C883.71,308.18,871.1,295.57,846.48,295.57 M741.99,507.56
	c-38.44,0-66.06-30.62-66.06-70.86c0-38.44,27.63-70.87,66.06-70.87c38.44,0,66.06,32.43,66.06,70.87
	C808.05,476.94,780.42,507.56,741.99,507.56"/>
<path class="st0" d="M1081.18,290.16c-35.43,0-58.85,13.81-72.67,28.23V198.28c0-26.42-12.61-39.64-38.44-39.64
	c-24.62,0-37.24,13.22-37.24,39.64V541.8c0,25.82,12.61,39.03,37.24,39.03c25.82,0,38.44-13.21,38.44-39.03V427.69
	c0-43.24,15.01-67.26,53.45-67.26s55.25,24.02,55.25,67.26v113.5c0,26.43,12.61,39.64,37.23,39.64c25.23,0,37.84-13.21,37.84-39.64
	V422.89C1192.28,334.6,1143.03,290.16,1081.18,290.16"/>
<path class="st0" d="M1481.62,295.57c-19.22,0-30.03,9.61-34.23,28.22c-13.81-23.42-45.64-33.63-81.68-33.63
	c-80.47,0-130.32,63.06-130.32,146.54c0,81.68,50.45,146.54,130.32,146.54c35.43,0,68.47-15.61,79.87-33.03
	c5.41,20.42,16.82,30.63,34.83,30.63c25.82,0,38.44-13.81,38.44-41.44V334C1518.85,308.18,1506.24,295.57,1481.62,295.57
	 M1377.12,507.56c-38.44,0-66.06-30.62-66.06-70.86c0-38.44,27.63-70.87,66.06-70.87c38.44,0,66.06,32.43,66.06,70.87
	C1443.18,476.94,1415.56,507.56,1377.12,507.56"/>
<path class="st0" d="M1605.21,158.64c-24.02,0-37.24,13.22-37.24,40.84V541.8c0,26.42,12.61,39.04,37.84,39.04
	c25.22,0,38.44-12.61,38.44-39.04V199.48C1644.25,171.85,1631.03,158.64,1605.21,158.64"/>
<path class="st1" d="M1948.26,616.44c-7.97-12.27-23.78-16.84-36.99-10.58c-24.2,11.47-51.24,17.87-79.76,17.87
	c-28.53,0-55.57-6.41-79.78-17.87c-13.22-6.26-29.03-1.68-36.99,10.58c-9.61,14.8-4.13,34.83,11.82,42.38
	c31.83,15.07,67.42,23.5,104.95,23.5c37.55,0,73.12-8.42,104.94-23.48c15.96-7.55,21.44-27.58,11.83-42.39L1948.26,616.44z"/>
<path class="st0" d="M1758.25,407.36c0-16.18,13.12-29.3,29.3-29.3c16.18,0,29.3,13.12,29.3,29.3v58.6c0,16.18-13.12,29.3-29.3,29.3
	c-16.18,0-29.3-13.12-29.3-29.3V407.36z M1831.5,583.16c80.91,0,146.5-65.59,146.5-146.5c0-80.91-65.59-146.5-146.5-146.5
	c-80.91,0-146.5,65.59-146.5,146.5C1685,517.57,1750.59,583.16,1831.5,583.16 M1846.15,407.36c0-16.18,13.12-29.3,29.3-29.3
	s29.3,13.12,29.3,29.3v58.6c0,16.18-13.12,29.3-29.3,29.3s-29.3-13.12-29.3-29.3V407.36z"/>
</svg>
